<?xml version="1.0" standalone="no"?>
<!DOCTYPE svg PUBLIC "-//W3C//DTD SVG 20010904//EN"
 "http://www.w3.org/TR/2001/REC-SVG-20010904/DTD/svg10.dtd">
<svg version="1.0" xmlns="http://www.w3.org/2000/svg"
 width="729.000000pt" height="729.000000pt" viewBox="0 0 729.000000 729.000000"
 preserveAspectRatio="xMidYMid meet">
<metadata>
Created by potrace 1.14, written by Peter Selinger 2001-2017
</metadata>
<g transform="translate(0.000000,729.000000) scale(0.100000,-0.100000)"
fill="#000000" stroke="none">
<path d="M6389 4629 l-154 -214 -12 135 c-18 202 -30 229 -111 244 -28 5 -188
-16 -198 -27 -7 -6 75 -870 86 -909 16 -57 50 -78 126 -78 35 0 86 5 115 11
l51 11 -6 92 c-4 50 -9 105 -12 122 l-6 32 74 12 c56 10 93 10 159 1 173 -23
274 -74 407 -208 51 -52 105 -98 118 -104 107 -40 224 40 224 153 0 66 -17
102 -83 174 -134 146 -349 252 -553 270 -41 4 -74 9 -74 11 0 3 40 53 89 112
48 58 98 124 110 146 40 75 18 165 -48 200 -17 8 -57 18 -89 21 l-59 7 -154
-214z"/>
<path d="M5037 4508 c-129 -17 -280 -127 -335 -245 -23 -50 -27 -70 -27 -154
0 -92 1 -98 42 -181 145 -291 439 -342 716 -123 103 82 140 168 100 236 -16
26 -66 59 -91 59 -5 0 -27 -22 -48 -50 -76 -99 -208 -170 -292 -156 -33 5 -72
30 -61 39 2 2 81 67 175 145 188 155 205 177 185 242 -17 58 -90 132 -158 162
-67 30 -125 37 -206 26z m69 -224 c19 -9 34 -20 34 -24 0 -4 -35 -36 -77 -72
-43 -36 -92 -77 -110 -92 l-31 -26 -12 35 c-16 47 -6 97 27 136 48 56 108 72
169 43z"/>
<path d="M4490 4433 c-24 -3 -110 -32 -110 -37 0 -32 -68 -532 -77 -560 -5
-18 -6 -18 -15 -2 -5 9 -47 123 -94 254 -54 152 -93 245 -108 260 -50 50 -162
47 -227 -7 l-33 -28 53 -133 c117 -294 244 -549 289 -578 20 -13 47 -17 117
-17 76 1 99 5 140 25 48 24 51 28 78 105 82 233 157 578 141 643 -14 55 -79
87 -154 75z"/>
<path d="M2600 4404 c-70 -13 -90 -25 -90 -52 0 -74 63 -704 75 -748 20 -72
53 -114 110 -143 44 -23 61 -26 160 -26 127 0 174 16 212 74 27 40 29 80 6
128 -16 34 -17 35 -57 27 -80 -16 -136 -11 -156 14 -20 24 -31 101 -34 224
l-1 73 84 8 c47 4 95 14 108 22 37 25 42 91 11 168 l-11 28 -86 -7 c-152 -12
-135 -19 -142 62 -7 74 -28 128 -54 137 -23 9 -107 16 -135 11z"/>
<path d="M3355 4329 c-171 -25 -245 -71 -245 -152 0 -36 30 -107 45 -107 2 0
40 12 82 26 100 33 214 42 265 21 39 -16 69 -60 52 -76 -5 -5 -65 -18 -133
-30 -200 -36 -275 -73 -312 -156 -21 -45 -24 -130 -8 -189 16 -56 80 -121 147
-148 49 -19 76 -22 187 -22 188 1 314 39 383 119 38 42 38 41 17 312 -16 213
-30 265 -88 321 -77 75 -225 105 -392 81z m225 -545 c0 -61 -1 -65 -27 -75
-88 -34 -186 -16 -199 36 -7 30 16 70 46 80 34 11 165 32 173 28 4 -2 7 -33 7
-69z"/>
<path d="M5716 4244 c-121 -24 -144 -53 -125 -162 20 -113 61 -137 191 -111
74 14 99 29 114 65 19 46 0 147 -35 185 -33 36 -60 40 -145 23z"/>
<path d="M423 4225 c-194 -44 -334 -181 -379 -371 -19 -79 -14 -223 10 -311
44 -163 148 -278 301 -334 82 -30 290 -33 379 -6 108 34 166 89 166 160 0 43
-22 96 -50 122 -17 15 -21 15 -58 -9 -125 -79 -283 -73 -375 13 -60 55 -94
172 -84 286 13 139 91 216 235 231 46 5 72 1 132 -19 82 -27 90 -26 116 24 37
72 4 155 -79 198 -40 20 -65 25 -150 27 -63 2 -126 -2 -164 -11z"/>
<path d="M2045 4193 c-107 -15 -229 -65 -293 -120 -64 -55 -65 -77 -18 -534
14 -142 24 -169 65 -191 29 -15 129 -15 189 1 51 14 50 -11 17 326 -13 137
-21 253 -18 258 21 34 151 49 190 22 27 -19 29 -28 53 -285 16 -173 23 -220
38 -240 38 -50 85 -60 198 -39 32 6 62 14 66 17 10 10 -40 529 -57 587 -42
148 -215 228 -430 198z"/>
<path d="M1135 4094 c-163 -29 -242 -97 -216 -184 6 -21 20 -48 30 -61 l19
-23 78 28 c89 31 230 45 277 27 26 -10 56 -55 44 -67 -3 -3 -66 -18 -139 -34
-73 -15 -151 -35 -172 -44 -100 -42 -149 -111 -150 -211 -3 -196 157 -296 423
-264 121 14 203 40 267 83 86 58 88 67 64 318 -24 248 -30 273 -73 330 -79
104 -240 140 -452 102z m259 -535 c8 -71 7 -73 -72 -90 -86 -17 -142 7 -142
62 0 37 34 59 114 75 97 19 93 22 100 -47z"/>
<path d="M6435 3953 c-68 -15 -117 -46 -108 -69 7 -18 32 -18 76 1 49 20 133
19 183 -4 22 -10 61 -42 85 -70 47 -54 59 -60 79 -36 31 37 -95 153 -190 174
-46 11 -89 12 -125 4z"/>
<path d="M6444 3714 c-38 -18 -47 -35 -74 -139 -121 -457 -504 -799 -990 -886
-110 -20 -346 -17 -450 5 -365 78 -662 304 -801 611 -32 72 -49 85 -109 85
-56 0 -100 -42 -100 -94 0 -48 71 -189 147 -291 187 -251 461 -423 793 -497
90 -20 132 -23 295 -23 208 1 301 15 484 75 469 153 834 545 936 1003 20 92
15 121 -28 147 -38 24 -62 25 -103 4z"/>
</g>
</svg>
